<svg id="Capa_1" enable-background="new 0 0 510 510" height="512" viewBox="0 0 510 510" width="512" xmlns="http://www.w3.org/2000/svg" xmlns:xlink="http://www.w3.org/1999/xlink"><linearGradient id="lg1"><stop offset="0" stop-color="#fee97d"/><stop offset="1" stop-color="#fac600"/></linearGradient><linearGradient id="SVGID_1_" gradientUnits="userSpaceOnUse" x1="87.762" x2="451.413" xlink:href="#lg1" y1="87.762" y2="451.413"/><linearGradient id="SVGID_2_" gradientUnits="userSpaceOnUse" x1="167.744" x2="297.383" xlink:href="#lg1" y1="167.747" y2="297.386"/><linearGradient id="SVGID_3_" gradientUnits="userSpaceOnUse" x1="254.999" x2="254.999" y1="278.43" y2="435.373"><stop offset="0" stop-color="#fac600" stop-opacity="0"/><stop offset=".6899" stop-color="#d68c3d" stop-opacity=".69"/><stop offset="1" stop-color="#c5715a"/></linearGradient><linearGradient id="SVGID_4_" gradientTransform="matrix(1 0 0 -1 -2915.099 -1821.068)" gradientUnits="userSpaceOnUse" x1="3156.286" x2="3199.1" xlink:href="#lg1" y1="-1852.51" y2="-1852.51"/><linearGradient id="SVGID_5_" gradientUnits="userSpaceOnUse" x1="241.187" x2="284.001" xlink:href="#lg1" y1="478.558" y2="478.558"/><linearGradient id="SVGID_6_" gradientTransform="matrix(.812 .584 .584 -.812 -695.716 -3491.914)" gradientUnits="userSpaceOnUse" x1="2945.763" x2="2988.577" xlink:href="#lg1" y1="-2263.235" y2="-2263.235"/><linearGradient id="SVGID_7_" gradientTransform="matrix(.812 .584 -.584 .812 -3364.193 219.674)" gradientUnits="userSpaceOnUse" x1="2945.019" x2="2987.834" xlink:href="#lg1" y1="-1860.936" y2="-1860.936"/><linearGradient id="SVGID_8_" gradientTransform="matrix(.318 .948 .948 -.318 2081.642 -3552.523)" gradientUnits="userSpaceOnUse" x1="3014.666" x2="3057.48" xlink:href="#lg1" y1="-2719.598" y2="-2719.598"/><linearGradient id="SVGID_9_" gradientTransform="matrix(.318 .948 -.948 .318 -2251.856 -2097.374)" gradientUnits="userSpaceOnUse" x1="3013.922" x2="3056.736" xlink:href="#lg1" y1="-1404.573" y2="-1404.573"/><linearGradient id="SVGID_10_" gradientTransform="matrix(-.812 .584 -.584 -.812 2269.716 -3491.914)" gradientUnits="userSpaceOnUse" x1="3809.561" x2="3852.375" xlink:href="#lg1" y1="-1641.987" y2="-1641.987"/><linearGradient id="SVGID_11_" gradientTransform="matrix(-.812 .584 .584 .812 4938.192 219.674)" gradientUnits="userSpaceOnUse" x1="3808.817" x2="3851.631" xlink:href="#lg1" y1="-2482.184" y2="-2482.184"/><linearGradient id="SVGID_12_" gradientTransform="matrix(-.318 .948 -.948 -.318 -507.642 -3552.523)" gradientUnits="userSpaceOnUse" x1="3353.198" x2="3396.012" xlink:href="#lg1" y1="-1710.89" y2="-1710.89"/><linearGradient id="SVGID_13_" gradientTransform="matrix(-.318 .948 .948 .318 3825.856 -2097.374)" gradientUnits="userSpaceOnUse" x1="3352.454" x2="3395.268" xlink:href="#lg1" y1="-2413.282" y2="-2413.282"/><linearGradient id="SVGID_14_" gradientUnits="userSpaceOnUse" x1="386.089" x2="170.089" y1="356.409" y2="213.075"><stop offset="0" stop-color="#f6a96c" stop-opacity="0"/><stop offset="1" stop-color="#c5715a"/></linearGradient><linearGradient id="SVGID_15_" gradientUnits="userSpaceOnUse" x1="214.391" x2="313.617" y1="214.391" y2="313.617"><stop offset="0" stop-color="#eaf6ff"/><stop offset="1" stop-color="#b3dafe"/></linearGradient><linearGradient id="lg2"><stop offset="0" stop-color="#d8ecfe" stop-opacity="0"/><stop offset=".7867" stop-color="#9bd1fe" stop-opacity=".787"/><stop offset="1" stop-color="#8ac9fe"/></linearGradient><linearGradient id="SVGID_16_" gradientUnits="userSpaceOnUse" x1="328.35" x2="216.35" xlink:href="#lg2" y1="263.386" y2="250.886"/><linearGradient id="SVGID_17_" gradientUnits="userSpaceOnUse" x1="262.829" x2="262.829" xlink:href="#lg2" y1="306.5" y2="353.268"/><g><g><path d="m449.6 283.639-11.43 12.056c-8.632 9.104-12.697 21.616-11.064 34.056l2.16 16.456c2.881 21.951-11.924 42.316-33.693 46.346l-16.297 3.017c-12.36 2.288-23.025 10.04-29.015 21.091l-7.87 14.517c-10.564 19.486-34.544 27.276-54.542 17.718l-14.9-7.121c-11.351-5.425-24.547-5.425-35.897 0l-14.899 7.121c-19.998 9.558-43.978 1.768-54.542-17.718l-7.87-14.517c-5.991-11.051-16.655-18.803-29.015-21.091l-16.297-3.017c-21.769-4.03-36.574-24.395-33.693-46.346l2.16-16.455c1.633-12.439-2.432-24.951-11.064-34.056l-11.432-12.057c-15.224-16.058-15.224-41.22 0-57.278l11.43-12.056c8.632-9.104 12.697-21.616 11.064-34.056l-2.16-16.456c-2.881-21.95 11.924-42.316 33.693-46.346l16.297-3.017c12.36-2.288 23.025-10.04 29.015-21.091l7.87-14.517c10.564-19.486 34.544-27.276 54.542-17.718l14.9 7.121c11.351 5.425 24.547 5.425 35.897 0l14.899-7.121c19.998-9.558 43.978-1.768 54.542 17.718l7.87 14.517c5.991 11.051 16.655 18.803 29.015 21.091l16.297 3.017c21.769 4.03 36.574 24.395 33.693 46.346l-2.16 16.455c-1.633 12.439 2.432 24.951 11.064 34.056l11.43 12.056c15.226 16.059 15.226 41.221.002 57.279z" fill="url(#SVGID_1_)"/><circle cx="254.999" cy="255.002" fill="url(#SVGID_2_)" r="157.803"/></g><path d="m97.196 255.002c0 87.152 70.651 157.803 157.803 157.803s157.803-70.651 157.803-157.803c0-.811-.019-1.618-.031-2.426h-315.544c-.012.808-.031 1.615-.031 2.426z" fill="url(#SVGID_3_)"/><g><g><g><path d="m255 0c-8.514 0-15.415 6.902-15.415 15.415v32.055c0 8.514 6.902 15.415 15.415 15.415 8.514 0 15.415-6.902 15.415-15.415v-32.055c0-8.513-6.901-15.415-15.415-15.415z" fill="url(#SVGID_4_)"/></g></g><g><g><path d="m255 510c-8.514 0-15.415-6.902-15.415-15.415v-32.055c0-8.514 6.902-15.415 15.415-15.415 8.514 0 15.415 6.902 15.415 15.415v32.055c0 8.513-6.901 15.415-15.415 15.415z" fill="url(#SVGID_5_)"/></g></g></g><g><g><g><path d="m403.889 47.981c-6.912-4.971-16.544-3.398-21.515 3.514l-18.716 26.024c-4.971 6.912-3.398 16.544 3.514 21.515 6.912 4.971 16.544 3.398 21.515-3.514l18.716-26.024c4.971-6.912 3.398-16.544-3.514-21.515z" fill="url(#SVGID_6_)"/></g></g><g><g><path d="m106.111 462.019c-6.912-4.971-8.485-14.604-3.514-21.515l18.716-26.024c4.971-6.912 14.604-8.485 21.515-3.514 6.912 4.971 8.485 14.604 3.514 21.515l-18.716 26.024c-4.971 6.912-14.604 8.485-21.515 3.514z" fill="url(#SVGID_7_)"/></g></g></g><g><g><g><path d="m496.749 173.867c-2.709-8.071-11.448-12.418-19.519-9.71l-30.389 10.199c-8.071 2.709-12.418 11.448-9.71 19.519 2.709 8.071 11.448 12.418 19.519 9.709l30.389-10.199c8.071-2.708 12.418-11.447 9.71-19.518z" fill="url(#SVGID_8_)"/></g></g><g><g><path d="m13.251 336.133c-2.709-8.071 1.638-16.81 9.709-19.519l30.389-10.199c8.071-2.709 16.81 1.638 19.519 9.709 2.709 8.071-1.638 16.81-9.709 19.519l-30.389 10.2c-8.071 2.708-16.81-1.639-19.519-9.71z" fill="url(#SVGID_9_)"/></g></g></g><g><g><g><path d="m106.111 47.981c6.912-4.971 16.544-3.398 21.515 3.514l18.716 26.024c4.971 6.912 3.398 16.544-3.514 21.515-6.912 4.971-16.544 3.398-21.515-3.514l-18.716-26.024c-4.971-6.912-3.398-16.544 3.514-21.515z" fill="url(#SVGID_10_)"/></g></g><g><g><path d="m403.889 462.019c6.912-4.971 8.485-14.604 3.514-21.515l-18.716-26.024c-4.971-6.912-14.604-8.485-21.515-3.514-6.912 4.971-8.485 14.604-3.514 21.515l18.716 26.024c4.971 6.912 14.604 8.485 21.515 3.514z" fill="url(#SVGID_11_)"/></g></g></g><g><g><g><path d="m13.251 173.867c2.709-8.071 11.448-12.418 19.519-9.71l30.389 10.199c8.071 2.709 12.418 11.448 9.709 19.519-2.709 8.071-11.448 12.418-19.519 9.709l-30.389-10.199c-8.07-2.708-12.417-11.447-9.709-19.518z" fill="url(#SVGID_12_)"/></g></g><g><g><path d="m496.749 336.133c2.709-8.071-1.638-16.81-9.709-19.519l-30.389-10.199c-8.071-2.709-16.81 1.638-19.519 9.709-2.709 8.071 1.638 16.81 9.71 19.519l30.389 10.199c8.07 2.709 16.809-1.638 19.518-9.709z" fill="url(#SVGID_13_)"/></g></g></g><path d="m379.275 395.569 16.297-3.017c21.769-4.031 36.574-24.396 33.693-46.346l-2.16-16.456c-1.051-8.005.271-16.035 3.638-23.174l-157.16-157.16-84.25 118.167 47.25 47.25 4.232 49.174 84.229 84.229c7.123-3.709 13.246-9.499 17.345-17.06l7.87-14.517c5.992-11.05 16.656-18.801 29.016-21.09z" fill="url(#SVGID_14_)"/><g><path d="m314.182 239.75h-29.613c-5.156 0-9.335-4.18-9.335-9.335v-75.682c0-9.259-12.027-12.87-17.127-5.142l-70.081 106.183c-4.096 6.207.355 14.478 7.791 14.478h29.613c5.156 0 9.335 4.18 9.335 9.335v75.682c0 9.259 12.027 12.87 17.127 5.142l70.081-106.183c4.097-6.207-.354-14.478-7.791-14.478z" fill="url(#SVGID_15_)"/><path d="m321.975 254.225-70.082 106.184c-2.69 4.078-7.312 4.998-11.078 3.598l29.392-90.862c2.483-7.676-3.24-15.542-11.307-15.542h-7.979c-8.015 0-13.732-7.772-11.345-15.423l29.961-96.043c3.199 1.33 5.698 4.379 5.698 8.596v75.682c0 5.154 4.177 9.337 9.337 9.337h29.612c7.433-.001 11.887 8.266 7.791 14.473z" fill="url(#SVGID_16_)"/><path d="m234.766 301.322v53.946c0 9.259 12.027 12.87 17.127 5.142l38.998-59.088z" fill="url(#SVGID_17_)"/></g></g></svg>